<?xml version="1.0" standalone="no"?>
<!DOCTYPE svg PUBLIC "-//W3C//DTD SVG 20010904//EN"
 "http://www.w3.org/TR/2001/REC-SVG-20010904/DTD/svg10.dtd">
<svg version="1.0" xmlns="http://www.w3.org/2000/svg"
 width="1024.000000pt" height="1024.000000pt" viewBox="0 0 1024.000000 1024.000000"
 preserveAspectRatio="xMidYMid meet">

<g transform="translate(0.000000,1024.000000) scale(0.100000,-0.100000)"
fill="#000000" stroke="none">
<path d="M5004 8060 c-189 -17 -407 -71 -529 -132 -61 -31 -143 -95 -150 -119
-11 -33 43 -80 163 -142 120 -62 216 -91 278 -84 26 3 70 21 115 50 115 71
182 90 319 90 318 -1 506 -128 385 -262 -62 -68 -115 -84 -300 -89 -113 -3
-194 1 -275 12 -179 25 -203 23 -327 -30 -126 -54 -243 -113 -243 -124 0 -12
429 -230 451 -230 11 0 53 18 93 40 70 39 76 40 167 40 166 0 471 19 559 34
119 21 253 61 335 101 88 42 177 126 210 197 28 61 33 149 11 201 -14 35 -175
191 -224 217 -15 8 -42 25 -59 38 -40 28 -215 112 -234 112 -8 0 -39 9 -69 20
-126 48 -475 78 -676 60z"/>
<path d="M4195 7086 c-100 -32 -160 -79 -176 -138 -29 -110 92 -177 322 -178
119 0 196 14 275 50 68 30 84 51 84 103 0 29 -8 42 -47 76 -26 22 -72 53 -103
68 -50 25 -67 27 -185 30 -87 2 -143 -2 -170 -11z"/>
<path d="M3230 6306 c-119 -33 -229 -115 -275 -206 -48 -97 -56 -139 -58 -326
l-2 -177 35 -12 c58 -20 136 -58 287 -138 78 -41 151 -78 161 -81 18 -6 20 1
26 83 9 127 28 181 76 225 37 33 45 36 100 36 212 0 412 -270 343 -465 -23
-63 -49 -78 -180 -104 -132 -27 -181 -49 -226 -101 -58 -69 -71 -121 -71 -305
l-1 -159 226 -112 c124 -61 239 -115 257 -118 36 -8 37 -5 46 95 8 104 29 126
168 175 164 59 253 129 306 242 25 53 27 66 27 197 0 269 -58 440 -232 692
-84 121 -173 214 -317 333 -219 181 -514 277 -696 226z m63 -53 c-7 -2 -19 -2
-25 0 -7 3 -2 5 12 5 14 0 19 -2 13 -5z m444 -1179 c-3 -3 -12 -4 -19 -1 -8 3
-5 6 6 6 11 1 17 -2 13 -5z"/>
<path d="M6835 6310 c-107 -16 -278 -81 -374 -141 -36 -23 -91 -58 -121 -77
-81 -51 -245 -223 -318 -332 -85 -128 -167 -295 -197 -405 -29 -105 -55 -297
-55 -403 0 -71 1 -73 23 -67 12 4 54 26 92 49 39 23 136 74 216 113 l146 70 8
94 c10 138 61 262 155 382 20 24 62 54 153 104 36 20 118 26 162 11 77 -25
108 -146 67 -264 -29 -83 -80 -158 -190 -277 -101 -110 -204 -243 -238 -309
-45 -86 -66 -197 -71 -378 -5 -171 -5 -175 13 -158 11 9 127 71 259 138 l240
122 6 96 c7 123 28 165 169 347 17 22 45 60 61 85 16 25 47 68 70 95 22 28 52
74 65 103 13 29 33 65 44 80 10 15 40 81 66 147 l47 120 1 155 c1 176 -10 231
-66 315 -42 63 -110 131 -157 155 -69 35 -170 46 -276 30z m92 -46 c-3 -4 -43
-10 -87 -15 -110 -11 -248 -59 -358 -124 -150 -88 -221 -149 -345 -295 l-38
-45 31 46 c157 231 504 431 759 438 24 0 42 -2 38 -5z m-883 -571 c-50 -79
-92 -135 -69 -93 23 41 115 180 120 180 2 0 -21 -39 -51 -87z m750 -364 c-29
-53 -78 -112 -213 -254 -41 -44 -66 -66 -54 -50 11 17 66 79 120 138 55 59
115 134 134 166 42 72 52 72 13 0z m-310 -376 c-16 -21 -43 -65 -61 -98 -36
-67 -45 -68 -12 -2 23 45 87 137 96 137 3 0 -7 -17 -23 -37z"/>
<path d="M4040 4550 c0 -5 -5 -9 -11 -7 -6 1 -15 -8 -20 -21 l-9 -23 30 23
c30 24 37 38 20 38 -5 0 -10 -4 -10 -10z"/>
<path d="M3483 4339 l-53 -22 0 -57 c0 -73 25 -207 51 -273 46 -116 177 -271
267 -318 81 -41 169 -19 204 51 21 41 25 216 7 298 -13 65 -62 140 -139 218
-115 115 -224 149 -337 103z"/>
<path d="M6616 4339 c-73 -30 -178 -101 -213 -145 -90 -115 -117 -193 -117
-339 0 -84 3 -107 22 -142 43 -82 113 -90 220 -26 71 43 133 110 173 188 18
33 41 73 52 88 33 48 57 142 57 228 0 92 -15 131 -60 154 -38 20 -74 18 -134
-6z m-46 -69 c-52 -26 -94 -65 -163 -150 l-29 -35 28 40 c44 65 106 125 154
150 25 13 50 24 55 24 6 0 -15 -13 -45 -29z m-207 -225 c-9 -19 -18 -33 -21
-31 -4 5 26 66 33 66 3 0 -3 -16 -12 -35z"/>
<path d="M5011 4103 c-1 -22 -4 -23 -106 -23 -98 0 -105 -1 -105 -20 0 -17 -7
-20 -40 -20 -33 0 -40 -3 -40 -20 0 -18 -7 -20 -60 -20 -53 0 -60 -2 -60 -20
0 -18 -7 -20 -60 -20 -53 0 -60 -2 -60 -20 0 -18 -7 -20 -60 -20 l-60 0 0 -40
c0 -33 -3 -40 -20 -40 -13 0 -20 -7 -20 -20 0 -19 -7 -20 -100 -20 -93 0 -100
1 -100 20 0 13 -7 20 -20 20 -11 0 -20 -7 -20 -15 0 -8 -9 -15 -20 -15 -21 0
-59 62 -62 102 0 13 -4 -18 -8 -69 -11 -154 -63 -223 -171 -229 -28 -1 -47 2
-43 7 3 5 1 9 -4 9 -16 0 -114 70 -160 114 -80 76 -181 262 -182 334 0 21 -4
31 -11 27 -5 -4 -9 -17 -8 -28 2 -12 -1 -52 -5 -89 l-8 -68 -179 0 c-152 0
-179 2 -179 15 0 11 -11 15 -40 15 l-40 0 0 -52 c1 -47 4 -56 31 -78 17 -14
39 -33 50 -42 10 -10 22 -18 25 -18 3 0 17 -9 31 -20 14 -11 34 -20 44 -20 11
0 19 -4 19 -9 0 -11 65 -43 82 -40 27 3 38 -1 38 -15 0 -8 10 -18 22 -21 11
-4 31 -18 43 -31 12 -13 27 -24 32 -24 5 0 17 -8 27 -18 9 -11 34 -25 56 -32
22 -7 40 -17 40 -21 0 -4 46 -31 103 -60 56 -29 136 -70 177 -92 41 -22 165
-86 275 -142 267 -136 424 -226 431 -247 3 -10 12 -15 22 -12 16 5 16 5 0 -8
-15 -13 -12 -16 25 -40 70 -43 108 -60 123 -54 8 3 12 2 9 -4 -3 -5 3 -14 14
-19 17 -10 18 -9 7 15 -8 19 -16 23 -34 19 -15 -4 -21 -1 -20 7 2 9 -6 12 -22
10 -20 -3 -22 -2 -12 11 11 13 17 12 48 -3 19 -10 42 -24 50 -30 16 -14 65
-42 102 -59 13 -6 20 -15 17 -21 -4 -6 -27 0 -58 16 -85 41 -26 2 97 -65 180
-98 261 -119 331 -86 30 14 30 14 -15 9 -35 -4 -50 0 -68 15 l-23 20 -10 653
c-10 643 -18 811 -35 758 l-8 -25 -7 25 c-7 24 -7 24 -8 3z m-436 -1183 c4 -6
11 -8 16 -5 5 3 6 -1 3 -9 -5 -13 -12 -12 -46 6 -27 14 -36 23 -27 29 13 8 43
-4 54 -21z m304 -170 c30 -20 38 -30 25 -30 -24 1 -96 44 -87 53 10 11 15 9
62 -23z"/>
<path d="M6944 3564 c-18 -14 -18 -14 6 -3 31 14 36 19 24 19 -6 0 -19 -7 -30
-16z"/>
<path d="M3330 3555 c0 -2 23 -16 50 -30 63 -32 66 -25 4 9 -48 27 -54 29 -54
21z"/>
<path d="M6760 3470 c-9 -6 -10 -10 -3 -10 6 0 15 5 18 10 8 12 4 12 -15 0z"/>
<path d="M3560 3436 c0 -3 9 -10 20 -16 11 -6 20 -8 20 -6 0 3 -9 10 -20 16
-11 6 -20 8 -20 6z"/>
<path d="M4400 2986 c0 -3 14 -12 30 -21 17 -9 30 -13 30 -11 0 3 -13 12 -30
21 -16 9 -30 13 -30 11z"/>
<path d="M5620 2880 c-9 -6 -10 -10 -3 -10 6 0 15 5 18 10 8 12 4 12 -15 0z"/>
<path d="M5270 2690 c-9 -6 -10 -10 -3 -10 6 0 15 5 18 10 8 12 4 12 -15 0z"/>
</g>
</svg>
